<svg width="177" height="25" viewBox="0 0 177 25" fill="none" xmlns="http://www.w3.org/2000/svg">
<path d="M16.4545 8.25C16.2955 7.69697 16.072 7.20833 15.7841 6.78409C15.4962 6.35227 15.1439 5.98864 14.7273 5.69318C14.3182 5.39015 13.8485 5.15909 13.3182 5C12.7955 4.84091 12.2159 4.76136 11.5795 4.76136C10.3902 4.76136 9.3447 5.05682 8.44318 5.64773C7.54924 6.23864 6.85227 7.09848 6.35227 8.22727C5.85227 9.34848 5.60227 10.7197 5.60227 12.3409C5.60227 13.9621 5.84849 15.3409 6.34091 16.4773C6.83333 17.6136 7.5303 18.4811 8.43182 19.0795C9.33333 19.6705 10.3977 19.9659 11.625 19.9659C12.7386 19.9659 13.6894 19.7689 14.4773 19.375C15.2727 18.9735 15.8788 18.4091 16.2955 17.6818C16.7197 16.9545 16.9318 16.0947 16.9318 15.1023L17.9318 15.25H11.9318V11.5455H21.6705V14.4773C21.6705 16.5227 21.2386 18.2803 20.375 19.75C19.5114 21.2121 18.322 22.3409 16.8068 23.1364C15.2917 23.9242 13.5568 24.3182 11.6023 24.3182C9.42045 24.3182 7.50379 23.8371 5.85227 22.875C4.20076 21.9053 2.91288 20.5303 1.98864 18.75C1.07197 16.9621 0.613636 14.8409 0.613636 12.3864C0.613636 10.5 0.886364 8.81818 1.43182 7.34091C1.98485 5.85606 2.75758 4.59848 3.75 3.56818C4.74242 2.53788 5.89773 1.75379 7.21591 1.21591C8.53409 0.678029 9.96212 0.40909 11.5 0.40909C12.8182 0.40909 14.0455 0.602272 15.1818 0.988636C16.3182 1.36742 17.3258 1.9053 18.2045 2.60227C19.0909 3.29924 19.8144 4.12879 20.375 5.09091C20.9356 6.04545 21.2955 7.09848 21.4545 8.25H16.4545ZM25.3665 24V0.727272H41.0483V4.78409H30.2869V10.3295H40.2415V14.3864H30.2869V19.9432H41.0938V24H25.3665ZM44.0739 4.78409V0.727272H63.1875V4.78409H56.0625V24H51.1989V4.78409H44.0739ZM76.1506 10.4432V14.2841H65.5369V10.4432H76.1506ZM95.7983 8.25C95.6392 7.69697 95.4157 7.20833 95.1278 6.78409C94.84 6.35227 94.4877 5.98864 94.071 5.69318C93.6619 5.39015 93.1922 5.15909 92.6619 5C92.1392 4.84091 91.5597 4.76136 90.9233 4.76136C89.7339 4.76136 88.6884 5.05682 87.7869 5.64773C86.893 6.23864 86.196 7.09848 85.696 8.22727C85.196 9.34848 84.946 10.7197 84.946 12.3409C84.946 13.9621 85.1922 15.3409 85.6847 16.4773C86.1771 17.6136 86.8741 18.4811 87.7756 19.0795C88.6771 19.6705 89.7415 19.9659 90.9688 19.9659C92.0824 19.9659 93.0331 19.7689 93.821 19.375C94.6165 18.9735 95.2225 18.4091 95.6392 17.6818C96.0634 16.9545 96.2756 16.0947 96.2756 15.1023L97.2756 15.25H91.2756V11.5455H101.014V14.4773C101.014 16.5227 100.582 18.2803 99.7188 19.75C98.8551 21.2121 97.6657 22.3409 96.1506 23.1364C94.6354 23.9242 92.9006 24.3182 90.946 24.3182C88.7642 24.3182 86.8475 23.8371 85.196 22.875C83.5445 21.9053 82.2566 20.5303 81.3324 18.75C80.4157 16.9621 79.9574 14.8409 79.9574 12.3864C79.9574 10.5 80.2301 8.81818 80.7756 7.34091C81.3286 5.85606 82.1013 4.59848 83.0938 3.56818C84.0862 2.53788 85.2415 1.75379 86.5597 1.21591C87.8778 0.678029 89.3059 0.40909 90.8438 0.40909C92.1619 0.40909 93.3892 0.602272 94.5256 0.988636C95.6619 1.36742 96.6695 1.9053 97.5483 2.60227C98.4347 3.29924 99.1581 4.12879 99.7188 5.09091C100.279 6.04545 100.639 7.09848 100.798 8.25H95.7983ZM104.71 24V0.727272H109.631V19.9432H119.608V24H104.71ZM143.347 12.3636C143.347 14.9015 142.866 17.0606 141.903 18.8409C140.949 20.6212 139.646 21.9811 137.994 22.9205C136.35 23.8523 134.502 24.3182 132.449 24.3182C130.381 24.3182 128.525 23.8485 126.881 22.9091C125.237 21.9697 123.938 20.6098 122.983 18.8295C122.028 17.0492 121.551 14.8939 121.551 12.3636C121.551 9.82576 122.028 7.66667 122.983 5.88636C123.938 4.10606 125.237 2.75 126.881 1.81818C128.525 0.878787 130.381 0.40909 132.449 0.40909C134.502 0.40909 136.35 0.878787 137.994 1.81818C139.646 2.75 140.949 4.10606 141.903 5.88636C142.866 7.66667 143.347 9.82576 143.347 12.3636ZM138.358 12.3636C138.358 10.7197 138.112 9.33333 137.619 8.20455C137.134 7.07576 136.449 6.2197 135.562 5.63636C134.676 5.05303 133.638 4.76136 132.449 4.76136C131.259 4.76136 130.222 5.05303 129.335 5.63636C128.449 6.2197 127.759 7.07576 127.267 8.20455C126.782 9.33333 126.54 10.7197 126.54 12.3636C126.54 14.0076 126.782 15.3939 127.267 16.5227C127.759 17.6515 128.449 18.5076 129.335 19.0909C130.222 19.6742 131.259 19.9659 132.449 19.9659C133.638 19.9659 134.676 19.6742 135.562 19.0909C136.449 18.5076 137.134 17.6515 137.619 16.5227C138.112 15.3939 138.358 14.0076 138.358 12.3636ZM151.355 24L144.696 0.727272H150.071L153.923 16.8977H154.116L158.366 0.727272H162.969L167.207 16.9318H167.412L171.264 0.727272H176.639L169.98 24H165.185L160.753 8.78409H160.571L156.151 24H151.355Z" fill="white"/>
</svg>
